<svg
  width="24"
  height="24"
  viewBox="0 0 24 24"
  fill="none"
  xmlns="http://www.w3.org/2000/svg"
>
  <path
    fill-rule="evenodd"
    clip-rule="evenodd"
    d="M12 0C8.74182 0 8.33267 0.0143766 7.05275 0.0720631C5.77388 0.130301 4.67441 0.347912 3.74921 0.751542C2.79467 1.16577 2.036 1.7245 1.27733 2.48317C0.518665 3.24184 -0.0390625 4.00054 -0.453285 4.95508C-0.856915 5.88029 -1.07453 6.97976 -1.13277 8.25862C-1.19046 9.53854 -1.20484 9.94769 -1.20484 13.2058C-1.20484 16.4639 -1.19046 16.8731 -1.13277 18.153C-1.07453 19.4319 -0.856915 20.5313 -0.453285 21.4565C-0.0390625 22.4111 0.518665 23.1698 1.27733 23.9284C2.036 24.6871 2.79467 25.2458 3.74921 25.66C4.67441 26.0636 5.77388 26.2812 7.05275 26.3395C8.33267 26.3972 8.74182 26.4115 12 26.4115C15.2582 26.4115 15.6673 26.3972 16.9472 26.3395C18.2261 26.2812 19.3256 26.0636 20.2508 25.66C21.2053 25.2458 21.964 24.6871 22.7227 23.9284C23.4813 23.1698 24.0401 22.4111 24.4543 21.4565C24.8579 20.5313 25.0755 19.4319 25.1337 18.153C25.1914 16.8731 25.2058 16.4639 25.2058 13.2058C25.2058 9.94769 25.1914 9.53854 25.1337 8.25862C25.0755 6.97976 24.8579 5.88029 24.4543 4.95508C24.0401 4.00054 23.4813 3.24184 22.7227 2.48317C21.964 1.7245 21.2053 1.16577 20.2508 0.751542C19.3256 0.347912 18.2261 0.130301 16.9472 0.0720631C15.6673 0.0143766 15.2582 0 12 0ZM12 2.18466C15.2262 2.18466 15.5905 2.19865 16.852 2.25499C18.0192 2.30829 18.8922 2.51067 19.5115 2.77276C20.1836 3.05512 20.6722 3.42311 21.1857 3.93657C21.6992 4.45003 22.0672 4.93861 22.3495 5.61075C22.6116 6.22997 22.814 7.10294 22.8673 8.27019C22.9236 9.53167 22.9375 9.89593 22.9375 13.1221C22.9375 16.3483 22.9236 16.7125 22.8673 17.974C22.814 19.1412 22.6116 20.0142 22.3495 20.6334C22.0672 21.3056 21.6992 21.7941 21.1857 22.3076C20.6722 22.821 20.1836 23.189 19.5115 23.4714C18.8922 23.7335 18.0192 23.9359 16.852 23.9892C15.5905 24.0455 15.2262 24.0595 12 24.0595C8.77374 24.0595 8.40948 24.0455 7.14799 23.9892C5.98075 23.9359 5.10778 23.7335 4.48856 23.4714C3.81642 23.189 3.32784 22.821 2.81438 22.3076C2.30092 21.7941 1.93294 21.3056 1.65058 20.6334C1.38848 20.0142 1.1861 19.1412 1.13279 17.974C1.07645 16.7125 1.06245 16.3483 1.06245 13.1221C1.06245 9.89593 1.07645 9.53167 1.13279 8.27019C1.1861 7.10294 1.38848 6.22997 1.65058 5.61075C1.93294 4.93861 2.30092 4.45003 2.81438 3.93657C3.32784 3.42311 3.81642 3.05512 4.48856 2.77276C5.10778 2.51067 5.98075 2.30829 7.14799 2.25499C8.40948 2.19865 8.77374 2.18466 12 2.18466ZM12 5.39735C8.61383 5.39735 5.82228 8.18891 5.82228 11.575C5.82228 14.9612 8.61383 17.7528 12 17.7528C15.3862 17.7528 18.1777 14.9612 18.1777 11.575C18.1777 8.18891 15.3862 5.39735 12 5.39735ZM12 8.28188C14.0506 8.28188 15.6931 9.92439 15.6931 11.975C15.6931 14.0257 14.0506 15.6682 12 15.6682C9.94933 15.6682 8.30682 14.0257 8.30682 11.975C8.30682 9.92439 9.94933 8.28188 12 8.28188ZM19.6026 4.71925C19.1451 4.71925 18.7892 5.07519 18.7892 5.53275C18.7892 5.99031 19.1451 6.34626 19.6026 6.34626C20.0602 6.34626 20.4161 5.99031 20.4161 5.53275C20.4161 5.07519 20.0602 4.71925 19.6026 4.71925Z"
    fill="currentColor"
  />
</svg>